<svg width="40" height="40" viewBox="0 0 40 40" fill="none" xmlns="http://www.w3.org/2000/svg">
<path d="M4.875 35.6875C4.875 31.856 7.98102 28.75 11.8125 28.75V28.75C15.644 28.75 18.75 31.856 18.75 35.6875V38.9773C18.75 39.5421 18.2921 40 17.7273 40H5.89773C5.33289 40 4.875 39.5421 4.875 38.9773V35.6875Z" fill="white"/>
<ellipse cx="11.8125" cy="21.625" rx="5.4375" ry="5.625" fill="white"/>
<path d="M20.875 19.6875C20.875 15.856 23.981 12.75 27.8125 12.75V12.75C31.644 12.75 34.75 15.856 34.75 19.6875V22.9773C34.75 23.5421 34.2921 24 33.7273 24H21.8977C21.3329 24 20.875 23.5421 20.875 22.9773V19.6875Z" fill="white"/>
<ellipse cx="27.8125" cy="5.625" rx="5.4375" ry="5.625" fill="white"/>
</svg>
